<svg id="Warstwa_1" data-name="Warstwa 1" xmlns="http://www.w3.org/2000/svg" viewBox="0 0 1155 512"><defs><style>.cls-1{fill:#2f2f2f;}.cls-2{font-size:73.84px;fill:#898989;font-family:CoreSansN-45Regular, Core Sans N;}</style></defs><path class="cls-1" d="M270.25,273.4a59,59,0,0,1,3.93-21.67,50.4,50.4,0,0,1,11.18-17.37,51.3,51.3,0,0,1,17.52-11.48A61.16,61.16,0,0,1,326,218.72a94.23,94.23,0,0,1,16.84,1.44,76.41,76.41,0,0,1,14.43,4l-1.21,13.29a59.72,59.72,0,0,0-13.52-4.9,68.28,68.28,0,0,0-15.79-1.74A47.46,47.46,0,0,0,309,234a38.18,38.18,0,0,0-22.13,22.36,47,47,0,0,0-3,17.06,49.25,49.25,0,0,0,2.94,17.38,36.37,36.37,0,0,0,8.69,13.44,39.7,39.7,0,0,0,14,8.68,54.19,54.19,0,0,0,19,3.1,59,59,0,0,0,9.81-.76,43.93,43.93,0,0,0,7.86-2V279.9H317.08V268.12h42.44v54.07a73.45,73.45,0,0,1-15,4.46,93.57,93.57,0,0,1-17,1.43A65.68,65.68,0,0,1,303.78,324a53.14,53.14,0,0,1-18-11.33,49.21,49.21,0,0,1-11.48-17.3A59,59,0,0,1,270.25,273.4Z"/><path class="cls-1" d="M376.14,287.15a49.07,49.07,0,0,1,2.64-16.31,37.63,37.63,0,0,1,7.55-13,34.93,34.93,0,0,1,11.86-8.54,41.48,41.48,0,0,1,31.42,0,35,35,0,0,1,11.86,8.54,37.79,37.79,0,0,1,7.55,13,51.95,51.95,0,0,1,0,32.7,38,38,0,0,1-7.55,12.91A35,35,0,0,1,429.61,325a41.48,41.48,0,0,1-31.42,0,34.93,34.93,0,0,1-11.86-8.54,37.82,37.82,0,0,1-7.55-12.91A49,49,0,0,1,376.14,287.15Zm13,0q0,13.75,6.49,21.75t18.28,8q11.78,0,18.28-8t6.49-21.75q0-13.74-6.49-21.75t-18.28-8q-11.77,0-18.28,8T389.13,287.15Z"/><path class="cls-1" d="M469,216h12.69V326.27H469Z"/><path class="cls-1" d="M512.23,292.29q.75,11.18,7.63,17.9t18.65,6.72a48.25,48.25,0,0,0,12.76-1.59,29.39,29.39,0,0,0,11-5.82l1.36,12.24a40,40,0,0,1-11.26,4.68,56.22,56.22,0,0,1-14.12,1.66,42.32,42.32,0,0,1-17-3.17A34.37,34.37,0,0,1,509,316.23a36.85,36.85,0,0,1-7.4-13A51.14,51.14,0,0,1,499.09,287a52.61,52.61,0,0,1,2.49-16.69,37.78,37.78,0,0,1,7.1-12.84,31.7,31.7,0,0,1,11.18-8.31,35.25,35.25,0,0,1,14.57-2.94,36,36,0,0,1,15.11,3,30.8,30.8,0,0,1,11.18,8.53,38.06,38.06,0,0,1,6.87,13.14,56.72,56.72,0,0,1,2.34,16.69v2.34a19.14,19.14,0,0,1-.15,2.35Zm44.56-10.88q-.76-11-6.57-17.52t-15.79-6.5q-10,0-15.71,6.5t-6.49,17.52Z"/><path class="cls-1" d="M598.48,326.27H585.79V216h12.69v38.06a28.62,28.62,0,0,1,9.59-5.74,34.9,34.9,0,0,1,12.31-2.11A36.71,36.71,0,0,1,634.73,249a32.53,32.53,0,0,1,11.55,8.16A39,39,0,0,1,654,270.08a53.61,53.61,0,0,1,0,34.14,39,39,0,0,1-7.71,12.91,32.53,32.53,0,0,1-11.55,8.16,36.71,36.71,0,0,1-14.35,2.79A34.9,34.9,0,0,1,608.07,326a28.78,28.78,0,0,1-9.59-5.74Zm0-19a22.56,22.56,0,0,0,8.91,7.17,27.79,27.79,0,0,0,11.78,2.5A25.27,25.27,0,0,0,629,315a21,21,0,0,0,7.78-5.59,27.08,27.08,0,0,0,5.13-9.29,40.59,40.59,0,0,0,1.89-13,39.93,39.93,0,0,0-1.89-12.92,28,28,0,0,0-5.13-9.28,20.62,20.62,0,0,0-7.78-5.67,25.27,25.27,0,0,0-9.82-1.89,27.79,27.79,0,0,0-11.78,2.5,22.56,22.56,0,0,0-8.91,7.17Z"/><path class="cls-1" d="M672.49,224q0-8,8-8t8,8q0,8-8,8T672.49,224Zm1.66,24h12.69v78.24H674.15Z"/><path class="cls-1" d="M704.21,287.15a49.07,49.07,0,0,1,2.64-16.31,37.63,37.63,0,0,1,7.55-13,35,35,0,0,1,11.86-8.54,41.48,41.48,0,0,1,31.42,0,35,35,0,0,1,11.86,8.54,37.63,37.63,0,0,1,7.55,13,51.95,51.95,0,0,1,0,32.7,37.82,37.82,0,0,1-7.55,12.91A35,35,0,0,1,757.68,325a41.48,41.48,0,0,1-31.42,0,35,35,0,0,1-11.86-8.54,37.82,37.82,0,0,1-7.55-12.91A49,49,0,0,1,704.21,287.15Zm13,0q0,13.75,6.49,21.75t18.28,8q11.79,0,18.28-8t6.49-21.75q0-13.74-6.49-21.75t-18.28-8q-11.78,0-18.28,8T717.2,287.15Z"/><path class="cls-1" d="M850.27,248,869,310.26,888,248h13.74l-26.73,78.24H863l-18.43-60.72L826.1,326.27H814L787.28,248H801l19,62.23L838.79,248Z"/><path class="cls-1" d="M936.82,328.08a53.36,53.36,0,0,1-14-1.81,47.32,47.32,0,0,1-12-5l1.06-12.69a36.08,36.08,0,0,0,11.18,6.11,41.58,41.58,0,0,0,13.74,2.2q9.21,0,13.52-3a9.84,9.84,0,0,0,4.31-8.68,12.29,12.29,0,0,0-.76-4.39,8.85,8.85,0,0,0-2.79-3.62,22.44,22.44,0,0,0-5.44-3.1,67.07,67.07,0,0,0-8.54-2.79q-13-3.31-19.33-9a18.64,18.64,0,0,1-6.34-14.57q0-10.43,8.08-16t21.37-5.58a68.33,68.33,0,0,1,11.86,1.05,48.46,48.46,0,0,1,10.8,3.17l-1.21,12.09a35.15,35.15,0,0,0-9.89-3.85,49.29,49.29,0,0,0-11.26-1.29q-8.61,0-12.69,2.57a7.88,7.88,0,0,0-4.07,7,9.88,9.88,0,0,0,4.07,7.85q4.08,3.33,14.2,5.89,13.29,3.48,19.11,9.22a19.52,19.52,0,0,1,5.82,14.5q0,11.47-8.24,17.6T936.82,328.08Z"/><path class="cls-1" d="M997.69,216v64l34.6-32h16.31L1011,282.62l40.78,43.65h-16.62l-37.46-41.08v41.08H985V216Z"/><path class="cls-1" d="M1062.19,224q0-8,8-8t8,8q0,8-8,8T1062.19,224Zm1.66,24h12.69v78.24h-12.69Z"/><path class="cls-1" d="M259.33,72.44H242.16l-4.07,8.94-61,157.09-5.24-2.37-5.67-2.41h0l-73-31.09,78.65-33.51V151L72,194v17.25l99.19,42.63L130,359l-.32.75h17.84l105.78-272,6.06,2.64v.07L338,124l-78.65,33.51v18.05l99.92-42.93V115.37ZM171.88,252v-.23l.07.06Z"/><path class="cls-1" d="M262.3,118.2q0-8,8-8t8,8q0,8-8,8T262.3,118.2Z"/><text class="cls-2" transform="translate(937.57 416.67)">blog</text></svg>