<svg id="Warstwa_1" data-name="Warstwa 1" xmlns="http://www.w3.org/2000/svg" viewBox="0 0 287 128"><defs><style>.cls-1{fill:inherit;}.cls-2{font-size:18.54px;fill:#898989;font-family:CoreSansN-45Regular, Core Sans N;}</style></defs><path class="cls-1" d="M66.34,68.37a14.94,14.94,0,0,1,1-5.44,12.88,12.88,0,0,1,2.81-4.37,13,13,0,0,1,4.4-2.88,15.5,15.5,0,0,1,5.81-1,23.61,23.61,0,0,1,4.22.36,19.16,19.16,0,0,1,3.63,1l-.31,3.34a14.8,14.8,0,0,0-3.39-1.23,17.24,17.24,0,0,0-4-.44,11.88,11.88,0,0,0-4.45.8,9.83,9.83,0,0,0-3.4,2.22,9.94,9.94,0,0,0-2.16,3.39,11.8,11.8,0,0,0-.76,4.29,12.39,12.39,0,0,0,.74,4.36,9.08,9.08,0,0,0,2.18,3.38,10.08,10.08,0,0,0,3.53,2.18,13.57,13.57,0,0,0,4.78.78,14.75,14.75,0,0,0,2.47-.19,12,12,0,0,0,2-.49V70H78.1V67H88.76V80.62A18.45,18.45,0,0,1,85,81.74a23.54,23.54,0,0,1-4.27.36,16.47,16.47,0,0,1-5.95-1,13.14,13.14,0,0,1-4.53-2.85,12.2,12.2,0,0,1-2.89-4.34A14.77,14.77,0,0,1,66.34,68.37Z"/><path class="cls-1" d="M92.93,71.82a12.35,12.35,0,0,1,.66-4.09,9.61,9.61,0,0,1,1.9-3.27,8.71,8.71,0,0,1,3-2.14,10.37,10.37,0,0,1,7.89,0,8.9,8.9,0,0,1,3,2.14,9.43,9.43,0,0,1,1.89,3.27,12.91,12.91,0,0,1,0,8.21,9.48,9.48,0,0,1-1.89,3.24,8.77,8.77,0,0,1-3,2.14,10.37,10.37,0,0,1-7.89,0,8.58,8.58,0,0,1-3-2.14,9.66,9.66,0,0,1-1.9-3.24A12.32,12.32,0,0,1,92.93,71.82Zm3.26,0a8.49,8.49,0,0,0,1.63,5.47,6.25,6.25,0,0,0,9.18,0,8.43,8.43,0,0,0,1.63-5.47A8.4,8.4,0,0,0,107,66.36a6.25,6.25,0,0,0-9.18,0A8.46,8.46,0,0,0,96.19,71.82Z"/><path class="cls-1" d="M116.26,54h3.19V81.65h-3.19Z"/><path class="cls-1" d="M127.11,73.11a6.66,6.66,0,0,0,1.91,4.5,6.45,6.45,0,0,0,4.69,1.69,12.35,12.35,0,0,0,3.2-.4,7.49,7.49,0,0,0,2.75-1.46l.35,3.07a10.08,10.08,0,0,1-2.83,1.18,14.6,14.6,0,0,1-3.55.41,10.7,10.7,0,0,1-4.27-.79,8.6,8.6,0,0,1-3.07-2.19,9.28,9.28,0,0,1-1.86-3.26,13,13,0,0,1-.62-4.07,13.43,13.43,0,0,1,.62-4.2,9.42,9.42,0,0,1,1.79-3.22,8,8,0,0,1,2.8-2.09,8.9,8.9,0,0,1,3.66-.74,9.21,9.21,0,0,1,3.8.76,7.71,7.71,0,0,1,2.8,2.14,9.62,9.62,0,0,1,1.73,3.3,14.35,14.35,0,0,1,.59,4.2v.58a4,4,0,0,1,0,.59Zm11.19-2.73a7.16,7.16,0,0,0-1.65-4.4,5.06,5.06,0,0,0-4-1.63A5,5,0,0,0,128.74,66a7.15,7.15,0,0,0-1.63,4.4Z"/><path class="cls-1" d="M148.77,81.65h-3.19V54h3.19v9.56a7.31,7.31,0,0,1,2.41-1.45,8.83,8.83,0,0,1,3.09-.53,9.31,9.31,0,0,1,3.6.7,8.33,8.33,0,0,1,2.9,2.05,9.66,9.66,0,0,1,1.94,3.25,13.47,13.47,0,0,1,0,8.57,9.61,9.61,0,0,1-1.94,3.24,8.21,8.21,0,0,1-2.9,2.05,9.13,9.13,0,0,1-3.6.7,8.61,8.61,0,0,1-3.09-.53,7.13,7.13,0,0,1-2.41-1.44Zm0-4.78a5.74,5.74,0,0,0,2.24,1.8,7,7,0,0,0,3,.63,6.27,6.27,0,0,0,2.46-.48,5.12,5.12,0,0,0,1.95-1.4,6.62,6.62,0,0,0,1.29-2.33,10.14,10.14,0,0,0,.48-3.27,9.87,9.87,0,0,0-.48-3.24,6.8,6.8,0,0,0-1.29-2.33,5.09,5.09,0,0,0-1.95-1.43,6.45,6.45,0,0,0-2.46-.47,7,7,0,0,0-3,.63,5.57,5.57,0,0,0-2.24,1.8Z"/><path class="cls-1" d="M167.36,56a2,2,0,1,1,2,2A1.78,1.78,0,0,1,167.36,56Zm.41,6H171V81.65h-3.19Z"/><path class="cls-1" d="M175.32,71.82a12.1,12.1,0,0,1,.67-4.09,9.43,9.43,0,0,1,1.89-3.27,8.81,8.81,0,0,1,3-2.14,10.37,10.37,0,0,1,7.89,0,8.81,8.81,0,0,1,3,2.14,9.61,9.61,0,0,1,1.9,3.27,13.1,13.1,0,0,1,0,8.21,9.66,9.66,0,0,1-1.9,3.24,8.67,8.67,0,0,1-3,2.14,10.37,10.37,0,0,1-7.89,0,8.67,8.67,0,0,1-3-2.14A9.48,9.48,0,0,1,176,75.94,12.07,12.07,0,0,1,175.32,71.82Zm3.26,0a8.43,8.43,0,0,0,1.64,5.47,6.25,6.25,0,0,0,9.18,0A8.49,8.49,0,0,0,191,71.82a8.46,8.46,0,0,0-1.63-5.46,6.25,6.25,0,0,0-9.18,0A8.41,8.41,0,0,0,178.58,71.82Z"/><path class="cls-1" d="M212,62l4.71,15.63L221.49,62h3.45l-6.71,19.65h-3L210.56,66.4l-4.63,15.25h-3L196.19,62h3.45l4.78,15.63L209.12,62Z"/><path class="cls-1" d="M233.74,82.1a13.62,13.62,0,0,1-3.51-.45,12,12,0,0,1-3-1.25l.26-3.19a9.21,9.21,0,0,0,2.81,1.54,10.66,10.66,0,0,0,3.45.55,6.17,6.17,0,0,0,3.4-.74,2.49,2.49,0,0,0,1.08-2.19,3.21,3.21,0,0,0-.19-1.1,2.33,2.33,0,0,0-.7-.91,6.13,6.13,0,0,0-1.37-.77,15.38,15.38,0,0,0-2.14-.7A11.59,11.59,0,0,1,229,70.63,4.69,4.69,0,0,1,227.37,67a4.56,4.56,0,0,1,2-4,9.21,9.21,0,0,1,5.36-1.41,16.77,16.77,0,0,1,3,.27,12.39,12.39,0,0,1,2.72.79l-.31,3a9,9,0,0,0-2.48-1,12.79,12.79,0,0,0-2.83-.32,6.17,6.17,0,0,0-3.19.64,2,2,0,0,0-1,1.75,2.47,2.47,0,0,0,1,2,9.71,9.71,0,0,0,3.57,1.48,10.62,10.62,0,0,1,4.8,2.32,4.91,4.91,0,0,1,1.46,3.64,5.18,5.18,0,0,1-2.07,4.42A9.35,9.35,0,0,1,233.74,82.1Z"/><path class="cls-1" d="M249,54V70l8.69-8h4.09l-9.44,8.68,10.24,11h-4.17L249,71.33V81.65h-3.19V54Z"/><path class="cls-1" d="M265.23,56a2,2,0,1,1,2,2A1.78,1.78,0,0,1,265.23,56Zm.41,6h3.19V81.65h-3.19Z"/><path class="cls-1" d="M63.59,17.9H59.28l-1,2.24L43,59.6,41.63,59l-1.42-.6h0L21.88,50.59l19.75-8.42V37.64L16.54,48.42v4.33L41.45,63.46,31.11,89.87l-.08.19h4.48L62.07,21.75l1.52.67h0l19.76,8.42L63.59,39.26V43.8L88.69,33V28.68ZM41.63,63v-.06l0,0Z"/><path class="cls-1" d="M64.34,29.39a2,2,0,1,1,4,0,2,2,0,0,1-4,0Z"/><text class="cls-2" transform="translate(233.93 104.35)">blog</text></svg>